<svg xmlns="http://www.w3.org/2000/svg" xmlns:xlink="http://www.w3.org/1999/xlink" version="1.1" x="0px" y="0px" viewBox="-247 370.9 100 125" style="enable-background:new -247 370.9 100 100;" xml:space="preserve"><g><path d="M-214,445.3c0.1,0.1,0.2,0.2,0.3,0.2c1.8,1,3,1.5,4.2,2c1.1,0.5,2.3,0.9,3.9,1.8c0.5,0.3,1.9,0.3,2.5,0.1   c1.3-0.5,1.7-0.2,2.2,0.1c0.5,0.3,0.9,0.5,1.5,0.5c0.5,0,1.1-0.2,1.8-0.6c0.4-0.2,1-1,2.5-2.9c0.7-0.9,1.7-2.3,2-2.5   c0.3-0.2,0.4-0.6,0.3-0.9c-0.2-0.3-0.6-0.5-0.9-0.4c-2.1,0.8-4.1,0.9-4.4,0.9c0,0-0.1,0-0.1,0c-3.6,0-5.6,0-7.6,0c-2,0-4.2,0-8,0   c-0.3,0-0.6,0.2-0.7,0.5c-0.1,0.3,0,0.6,0.2,0.8C-214.2,445.2-214.1,445.2-214,445.3z M-205.9,445.2c2,0,4,0,7.5,0   c0.3,0,0.8,0,1.7-0.1c0.3,0,0.7-0.1,1.1-0.2c-0.2,0.2-0.4,0.5-0.6,0.8c-0.7,0.9-1.8,2.4-2,2.6c-1,0.6-1.3,0.4-1.8,0.1   c-0.4-0.3-1-0.6-1.8-0.6c-0.5,0-1,0.1-1.7,0.3c0,0,0,0-0.1,0c-0.2,0.1-1,0-1.2,0c-1.7-0.9-2.9-1.4-4.1-1.9c-0.7-0.3-1.4-0.6-2.3-1   C-208.9,445.2-207.4,445.2-205.9,445.2z"/><path d="M-164.9,400.5h-6.1v-3.7c0-0.4-0.3-0.7-0.7-0.7c-2.4,0-5.6,0-8.8,0c-2.4,0-4.9,0-6.9,0l5.1-13.7l11-3.4   c0.4-0.1,0.6-0.5,0.5-0.9c-0.1-0.4-0.5-0.6-0.9-0.5l-11.4,3.5c-0.2,0.1-0.4,0.2-0.5,0.4l-5.4,14.5c-0.1,0-0.2,0-0.3,0   c0,0-0.1,0-0.1,0c-3,0-6.1,0-9.1,0c-1.1,0-2.1,0-3.2,0h-1c-0.4,0-0.7,0.3-0.7,0.7v3.7h-6.1c-0.4,0-0.7,0.3-0.7,0.7v7.2   c0,0.4,0.3,0.7,0.7,0.7c0.4,0,0.8,0,1.2,0c1,0,1.9,0,2.9,0c0,0,0.1,0,0.1,0c0,0,0,0,0,0.1c0.3,1.5,0.7,3.8,1.1,6   c0.3,1.5,0.6,2.9,0.8,4.1c-5.2-1.8-10.3-1.4-10.6-1.4c0,0,0,0,0,0c-7.8,1.1-11.8,5.3-13.7,8.6c-2.1,3.6-2.3,6.9-2.3,7   c0,0.2,0.1,0.4,0.2,0.5c0,0,0,0,0,0c-1.7,3.6,0.2,5.8,0.5,6.2c1.1,1.4,2.7,1.9,4.5,1.6c2-0.4,3.1-1.6,3.4-3.5   c0.1-0.5,0.2-0.5,0.5-0.6c0.3,0,0.4,0,0.5,0.6c0.1,1.1,0.6,2,1.6,2.7c0.8,0.6,1.8,0.9,2.7,0.9c0.5,0,1.1-0.1,1.6-0.3   c1.4-0.6,2.4-1.8,2.7-3.3c0.1-0.5,0.3-0.6,0.6-0.5c0.5,0,0.5,0.2,0.5,0.4c0,1.1,0.5,2.1,1.5,2.8c1.1,0.8,2.7,1.2,3.9,0.9   c2-0.5,3.2-1.8,3.2-3.5c0-0.7,0.2-0.7,0.5-0.7c0,0,0,0,0,0c0.1,0,0.4,0,0.5,0.6c0,1.2,0.6,2.1,1.8,2.8c1.7,1,3.9,0.9,5.4-0.3   c1.4-1.1,1.9-3,1.3-5c0-0.3-0.1-0.9-0.6-1.5c0.2,0,0.4-0.1,0.5-0.2c0.1-0.1,0.2-0.3,0.2-0.5c-0.5-8.8-7-12.5-7.3-12.7   c-0.6-0.4-1.3-0.7-1.9-0.9c-0.1-0.4-0.1-0.7-0.2-1.1h31.3l-0.7,3.9c0,0,0,0,0,0c-0.2,2-0.6,5.4-1,9.1c-0.6,5.8-1.3,12.3-1.7,15.6   c-0.2,0.9-0.3,1.8-0.5,2.7h-18.9c-0.1,0-0.3,0-0.4,0.1l-36.2,0c0,0,0,0,0,0c-0.2,0-0.3,0.1-0.4,0.1c-0.2,0.1-1.9,1.5-1.7,3.2   c0.1,1,0.8,1.8,2.1,2.3c0.1,0,0.2,0.1,0.3,0.1l35.7,0.3c0,0,0,0,0,0c0.1,0,0.3,0,0.4-0.1c0.1,0,1.6-1.1,1.8-2.7   c0.1-0.6-0.1-1.2-0.5-1.8h17.6c-0.2,1-0.3,1.9-0.5,2.9l-0.5,2.6h-18.5c-0.3,0-0.5,0.2-0.6,0.4h-33.9c-0.4,0-0.7,0.3-0.7,0.7   c0,0.2-0.1,4.3,3.1,5c0,0,0.1,0,0.2,0h29.9h0c0.2,0,0.6,0,1.2-0.5c0.8-0.7,1.2-2.1,1.3-4.2h18.9c0.4,0,0.7-0.3,0.7-0.6l0.6-3.2   c0.2-1.2,0.4-2.3,0.6-3.5c0.1-0.1,0.1-0.2,0.1-0.4c0-0.1,0-0.1,0-0.1c0.2-1,0.3-2,0.5-3c0,0,0,0,0,0c0.4-3.3,1.1-9.8,1.7-15.6   c0.4-3.7,0.8-7.1,1-9.1l0.7-4.1c0-0.1,0-0.3,0.1-0.4c0.1-0.1,0.1-0.2,0.1-0.3c0,0,0-0.1,0-0.1c0.5-2.9,1-5.7,1.5-8.6   c0-0.1,0-0.2,0-0.2c0,0,0.1,0,0.2,0c0.6,0,1.2,0,1.8,0c0.2,0,0.5,0,0.7,0c0.4,0,0.7-0.3,0.7-0.7v-7.2   C-164.1,400.9-164.5,400.5-164.9,400.5z M-193.3,453.3c-0.1,0.7-0.7,1.3-1,1.5l-35.3-0.3c-0.5-0.2-1.1-0.6-1.1-1.1   c-0.1-0.6,0.6-1.4,1-1.7l35.6,0C-193.5,452.2-193.3,452.8-193.3,453.3z M-196.4,461.8h-29.8c-1.3-0.3-1.7-1.9-1.8-2.8h32.6   C-195.6,461.4-196.3,461.7-196.4,461.8z M-201.9,397.6h0.2c1.1,0,2.1,0,3.2,0c3.1,0,6.3,0,9.5,0c0,0,0.1,0,0.1,0c2.3,0,5.3,0,8.3,0   c2.9,0,5.8,0,8.1,0v2.9h-29.5V397.6z M-194.9,439.8c-1,0.8-2.6,0.9-3.7,0.2c-0.7-0.4-1.1-1-1.1-1.7c0-1.2-0.8-2-1.9-2c0,0,0,0,0,0   c-1.1,0-1.9,0.8-1.9,2.1c-0.1,1.4-1.4,1.9-2.2,2.1c-0.8,0.2-1.9,0-2.7-0.6c-0.4-0.3-0.9-0.8-0.9-1.6c0-1-0.7-1.8-1.8-1.8   c-0.6,0-1.8,0.2-2.1,1.7c-0.2,1.1-0.9,1.9-1.8,2.2c-1,0.4-2,0.2-2.9-0.4c-0.6-0.4-0.9-1-1-1.7c-0.2-1.6-1.3-1.9-1.9-1.9   c0,0,0,0,0,0c-0.8,0-1.8,0.3-2,1.8c-0.1,1.2-0.9,1.9-2.2,2.2c-1.3,0.3-2.3-0.1-3.1-1.1c0,0,0,0-0.1-0.1c-0.1-0.1-1.7-1.8-0.1-5   h33.1c0,0,0,0,0,0c1,0.8,1,1.6,1,1.6c0,0.1,0,0.1,0,0.2C-193.7,437.7-194,439.1-194.9,439.8z M-200.6,422.2   C-200.6,422.2-200.6,422.2-200.6,422.2c0.1,0,5.7,3.3,6.5,10.8h-34.4c0.5-2.7,2.9-11.9,14.7-13.6   C-213.3,419.4-206.1,419-200.6,422.2z M-170.4,417.4h-31.8c-0.1-0.8-0.3-1.5-0.5-2.4c-0.4-2.1-0.8-4.3-1.1-5.8h34.8   C-169.5,411.9-169.9,414.7-170.4,417.4z M-165.6,407.8C-165.6,407.8-165.6,407.8-165.6,407.8c-0.6,0-1.1,0-1.7,0   c-0.2,0-0.4,0-0.6,0h-36.9c0,0-0.1,0-0.1,0c-0.1,0-0.3,0-0.5,0c-0.9,0-1.9,0-2.9,0c-0.2,0-0.3,0-0.5,0V402h6.1c0.1,0,0.3,0,0.4-0.1   h30.2c0.1,0.1,0.2,0.1,0.3,0.1h6.1V407.8z"/><path d="M-219.7,443.4c-0.4-0.2-1-0.4-1.5-0.4c0,0,0,0,0,0l-0.4,0c-2,0-4.1,0-6.2,0.1c-0.8,0-1.6,0.6-2,0.9   c-0.8,0.6-1.1,1.7-0.7,2.6c0.5,1.1,1.4,1.7,2.7,1.8c0.6,0,1.2,0,1.8,0c0.2,0,0.4,0,0.6,0c0.2,0,0.5,0,0.7,0c2.6,0,5.1,0,7.8,0   l3.2,0c0.3,0,0.6-0.2,0.7-0.5c0.1-0.3,0-0.6-0.2-0.8c-0.1-0.1-0.2-0.1-0.2-0.2c-0.1-0.1-0.2-0.2-0.3-0.3l-1.1-0.6   C-216.5,445.2-218.1,444.3-219.7,443.4z M-217,447.1c-2.6,0-5.2,0-7.8,0c-0.2,0-0.5,0-0.7,0c-0.8,0-1.6,0-2.3,0   c-0.7,0-1.2-0.3-1.4-0.9c-0.1-0.2-0.2-0.6,0.2-0.9c0.4-0.3,0.9-0.6,1.2-0.6c2-0.1,4.1-0.1,6.1-0.1l0.4,0c0,0,0,0,0,0   c0.3,0,0.6,0.1,0.8,0.2c1.4,0.8,2.8,1.6,4.2,2.4H-217z"/><path d="M-223,427.7c-0.3-0.3-0.7-0.3-1,0c-0.3,0.3-0.3,0.7,0,1l1.2,1.2c0.1,0.1,0.3,0.2,0.5,0.2c0.2,0,0.4-0.1,0.5-0.2   c0.3-0.3,0.3-0.7,0-1L-223,427.7z"/><path d="M-216.5,423.3c-0.3-0.3-0.7-0.3-1,0c-0.3,0.3-0.3,0.7,0,1l1.6,1.6c0.1,0.1,0.3,0.2,0.5,0.2s0.4-0.1,0.5-0.2   c0.3-0.3,0.3-0.7,0-1L-216.5,423.3z"/><path d="M-209.5,425.3c0.4,0,0.7-0.3,0.7-0.7v-2.2c0-0.4-0.3-0.7-0.7-0.7c-0.4,0-0.7,0.3-0.7,0.7v2.2   C-210.2,425-209.9,425.3-209.5,425.3z"/><path d="M-203.9,427.7c0.2,0,0.4-0.1,0.5-0.2l1.8-1.8c0.3-0.3,0.3-0.7,0-1c-0.3-0.3-0.7-0.3-1,0l-1.8,1.8c-0.3,0.3-0.3,0.7,0,1   C-204.3,427.6-204.1,427.7-203.9,427.7z"/><path d="M-199.3,431.4c0.1,0,0.2,0,0.3-0.1l1.9-0.8c0.4-0.2,0.5-0.6,0.4-1c-0.2-0.4-0.6-0.5-1-0.4l-1.9,0.8c-0.4,0.2-0.5,0.6-0.4,1   C-199.9,431.3-199.6,431.4-199.3,431.4z"/><path d="M-212,430.8l1.6,0.2c0,0,0.1,0,0.1,0c0.4,0,0.7-0.3,0.7-0.6c0.1-0.4-0.2-0.8-0.6-0.8l-1.6-0.2c-0.4-0.1-0.8,0.2-0.8,0.6   C-212.7,430.3-212.4,430.7-212,430.8z"/></g><text x="-247" y="485.9" fill="#000000" font-size="5px" font-weight="bold" font-family="'Helvetica Neue', Helvetica, Arial-Unicode, Arial, Sans-serif">Created by LeftHandedGraphic</text><text x="-247" y="490.9" fill="#000000" font-size="5px" font-weight="bold" font-family="'Helvetica Neue', Helvetica, Arial-Unicode, Arial, Sans-serif">from the Noun Project</text></svg>